<svg width="13" height="16" viewBox="0 0 13 16" fill="none" xmlns="http://www.w3.org/2000/svg">
<path fillRule="evenodd" clipRule="evenodd" d="M4.5 0H4.03647L3.82918 0.41459L3.03647 2H0V3.5H0.8099L1.75259 14.8123L1.8099 15.5H2.5H10.5H11.1901L11.2474 14.8123L12.1901 3.5H13V2H9.96353L9.17082 0.41459L8.96353 0H8.5H4.5ZM8.28647 2H4.71353L4.96353 1.5H8.03647L8.28647 2ZM3.1901 14L2.3151 3.5H3.5H9.5H10.6849L9.8099 14H3.1901ZM7.27406 13.25H8.77594L9.22594 4.25H7.72406L7.27406 13.25ZM5.72594 13.25L5.27594 4.25H3.77406L4.22406 13.25H5.72594Z" fill="#EF6272"/>
</svg>
