<svg width="11" height="12" viewBox="0 0 11 12" fill="none" xmlns="http://www.w3.org/2000/svg">
<path fillRule="evenodd" clipRule="evenodd" d="M2.85711 0C2.46262 0 2.14282 0.319797 2.14282 0.714286V1.5H1.5C0.671573 1.5 0 2.17157 0 3V3.5H11V3C11 2.17157 10.3284 1.5 9.5 1.5H8.85728V0.714286C8.85728 0.319797 8.53749 0 8.143 0C7.74851 0 7.42871 0.319797 7.42871 0.714286V1.5H3.57139V0.714286C3.57139 0.319797 3.2516 0 2.85711 0ZM0 4H11V8.5C11 10.1569 9.65685 11.5 8 11.5H3C1.34315 11.5 0 10.1569 0 8.5V4Z" fill="#3B4772" fill-opacity="0.7"/>
</svg>
