<svg width="36" height="36" viewBox="0 0 36 36" fill="none" xmlns="http://www.w3.org/2000/svg">
<rect width="36" height="36" rx="18" fill="#CCDBFF" fill-opacity="0.16"/>
<path fillRule="evenodd" clipRule="evenodd" d="M18 8C12.4772 8 8 12.4772 8 18C8 23.5228 12.4772 28 18 28C23.5228 28 28 23.5228 28 18C28 12.4772 23.5228 8 18 8ZM23.6999 15.7142C24.0944 15.3277 24.1008 14.6945 23.7142 14.3001C23.3277 13.9056 22.6945 13.8992 22.3001 14.2858L16.7571 19.7179L14.3321 17.2929C13.9416 16.9024 13.3084 16.9024 12.9179 17.2929C12.5274 17.6834 12.5274 18.3166 12.9179 18.7071L16.0429 21.8321L16.7429 22.5321L17.4499 21.8392L23.6999 15.7142Z" fill="white"/>
</svg>
