<svg width="36" height="36" viewBox="0 0 36 36" fill="none" xmlns="http://www.w3.org/2000/svg">
<rect width="36" height="36" rx="18" fill="#CCDBFF" fill-opacity="0.16"/>
<path fillRule="evenodd" clipRule="evenodd" d="M18 8C12.4772 8 8 12.4772 8 18C8 23.5228 12.4772 28 18 28C23.5228 28 28 23.5228 28 18C28 12.4772 23.5228 8 18 8ZM18 12.5C18.5523 12.5 19 12.9477 19 13.5V14C19 14.5523 18.5523 15 18 15C17.4477 15 17 14.5523 17 14V13.5C17 12.9477 17.4477 12.5 18 12.5ZM18 17C18.5523 17 19 17.4477 19 18V22C19 22.5523 18.5523 23 18 23C17.4477 23 17 22.5523 17 22V18C17 17.4477 17.4477 17 18 17Z" fill="white"/>
</svg>
