<svg width="36" height="36" viewBox="0 0 36 36" fill="none" xmlns="http://www.w3.org/2000/svg">
<rect width="36" height="36" rx="18" fill="#CCDBFF" fill-opacity="0.16"/>
<path fillRule="evenodd" clipRule="evenodd" d="M18 8C12.4772 8 8 12.4772 8 18C8 23.5228 12.4772 28 18 28C23.5228 28 28 23.5228 28 18C28 12.4772 23.5228 8 18 8ZM18 13C18.5523 13 19 13.4477 19 14V18C19 18.5523 18.5523 19 18 19C17.4477 19 17 18.5523 17 18V14C17 13.4477 17.4477 13 18 13ZM18 21C18.5523 21 19 21.4477 19 22V22.5C19 23.0523 18.5523 23.5 18 23.5C17.4477 23.5 17 23.0523 17 22.5V22C17 21.4477 17.4477 21 18 21Z" fill="white"/>
</svg>
