<svg width="36" height="36" viewBox="0 0 36 36" fill="none" xmlns="http://www.w3.org/2000/svg">
<rect width="36" height="36" rx="18" fill="#CCDBFF" fill-opacity="0.16"/>
<path fillRule="evenodd" clipRule="evenodd" d="M18 8C12.4772 8 8 12.4772 8 18C8 23.5228 12.4772 28 18 28C23.5228 28 28 23.5228 28 18C28 12.4772 23.5228 8 18 8ZM13.5429 13.5431C13.1524 13.9337 13.1524 14.5668 13.5429 14.9574L16.5858 18.0002L13.5429 21.0431C13.1524 21.4337 13.1524 22.0668 13.5429 22.4574C13.9334 22.8479 14.5666 22.8479 14.9571 22.4574L18 19.4145L21.0429 22.4574C21.4334 22.8479 22.0666 22.8479 22.4571 22.4574C22.8476 22.0668 22.8476 21.4337 22.4571 21.0431L19.4142 18.0002L22.4571 14.9574C22.8476 14.5668 22.8476 13.9337 22.4571 13.5431C22.0666 13.1526 21.4334 13.1526 21.0429 13.5431L18 16.586L14.9571 13.5431C14.5666 13.1526 13.9334 13.1526 13.5429 13.5431Z" fill="white"/>
</svg>
